#!OML:ASF F:\VICON\USERDATA\INSTALL\rory3\rory3.ASF
:FULLY-SPECIFIED
:DEGREES
31
root 4.57973 18.084 -23.8998 -2.98499 -4.25965 -5.74656
lowerback 12.569 0.558726 5.01488
upperback 1.31515 1.58746 2.59155
thorax -5.60763 0.690699 -0.37285
lowerneck -18.1594 -3.39155 -1.77698
upperneck 20.3277 -4.25896 0.217708
head 9.4596 -2.0969 -0.200303
rclavicle -4.14963e-015 5.1684e-015
rhumerus -26.2424 -14.8999 -80.7691
rradius 23.5075
rwrist 5.41731
rhand -16.0264 13.0497
rfingers 7.12502
rthumb 10.1747 -16.6842
lclavicle -4.14963e-015 5.1684e-015
lhumerus -31.7557 5.04463 83.1104
lradius 29.337
lwrist 6.86816
lhand -26.7597 27.7148
lfingers 7.12502
lthumb -0.188019 57.6945
rfemur -8.39938 8.22531 32.5601
rtibia 30.4273
rfoot -15.4506 -5.2738
rtoes 8.6671
lfemur -24.5842 4.75524 -14.5625
ltibia 61.8449
lfoot -5.05246 0.427021
ltoes -6.48417
32
root 4.58072 18.0831 -23.7401 -2.92768 -4.20233 -5.82481
lowerback 12.7712 0.631405 5.18855
upperback 1.40471 1.71028 2.4699
thorax -5.61108 0.746522 -0.62183
lowerneck -18.8704 -3.43077 -1.55821
upperneck 20.4094 -4.38243 0.294868
head 9.61582 -2.12335 -0.240151
rclavicle -1.717e-014 -2.98177e-014
rhumerus -25.614 -14.9033 -81.0631
rradius 23.9828
rwrist 5.22432
rhand -16.0411 12.5316
rfingers 7.12502
rthumb 10.1605 -17.2031
lclavicle -1.717e-014 -2.98177e-014
lhumerus -31.5594 4.64248 83.0707
lradius 29.2566
lwrist 7.12487
lhand -26.6626 28.0201
lfingers 7.12502
lthumb -0.0942059 57.9998
rfemur -7.82759 7.98757 32.6832
rtibia 30.2978
rfoot -16.0823 -5.28388
rtoes 8.05347
lfemur -25.3128 4.4214 -14.5167
ltibia 60.2556
lfoot -5.24604 1.10978
ltoes -5.68778
33
root 4.58117 18.0779 -23.5763 -2.76424 -4.09409 -6.04812
lowerback 12.7386 0.735492 5.55569
upperback 1.50644 1.88297 2.3348
thorax -5.46029 0.826719 -0.997473
lowerneck -19.7963 -3.52693 -1.18019
upperneck 20.731 -4.60578 0.233648
head 9.88953 -2.19592 -0.375801
rclavicle -4.07509e-015 -4.37326e-015
rhumerus -25.0844 -14.7321 -81.4106
rradius 24.605
rwrist 4.69786
rhand -16.2426 12.1607
rfingers 7.12502
rthumb 9.96614 -17.5834
lclavicle -4.07509e-015 -4.37326e-015
lhumerus -31.222 3.97374 83.0916
lradius 29.1772
lwrist 7.3051
lhand -26.6722 29.3279
lfingers 7.12502
lthumb -0.103507 59.3076
rfemur -7.28575 7.92302 32.9685
rtibia 30.1352
rfoot -16.7035 -5.42999
rtoes 8.72504
lfemur -26.0906 4.16003 -14.2951
ltibia 58.5757
lfoot -5.40782 1.59896
ltoes -5.30253
34
root 4.58441 18.07 -23.4025 -2.688 -4.25899 -6.05327
lowerback 12.7728 0.49335 5.27786
upperback 0.802936 1.58761 2.68199
thorax -6.262 0.664702 -0.429144
lowerneck -17.1025 -3.23594 -2.12764
upperneck 20.2407 -3.98441 0.286
head 9.24313 -1.99475 -0.0635169
rclavicle 4.72114e-016 -2.74323e-014
rhumerus -26.1579 -12.2325 -81.2554
rradius 25.213
rwrist 3.84388
rhand -16.2095 12.9218
rfingers 7.12502
rthumb 9.99807 -16.8207
lclavicle 4.72114e-016 -2.74323e-014
lhumerus -33.3484 5.49955 82.852
lradius 29.2682
lwrist 6.6554
lhand -27.036 27.4349
lfingers 7.12502
lthumb -0.454829 57.4142
rfemur -6.56565 8.00349 33.0218
rtibia 29.935
rfoot -17.1209 -5.63049
rtoes 8.29345
lfemur -26.5435 4.08029 -14.3181
ltibia 56.763
lfoot -5.65587 2.26952
ltoes -4.81616
35
root 4.59154 18.0526 -23.2309 -2.53349 -4.45814 -6.15398
lowerback 12.8174 0.716286 5.59518
upperback 0.952132 1.91004 2.48328
thorax -6.0962 0.816691 -0.873369
lowerneck -18.1349 -3.39992 -1.70075
upperneck 20.4044 -4.28311 0.173348
head 9.47922 -2.10706 -0.231726
rclavicle 1.58282e-014 2.64384e-014
rhumerus -25.3393 -12.228 -81.6149
rradius 25.4664
rwrist 3.18308
rhand -16.5393 13.5202
rfingers 7.12502
rthumb 9.67985 -16.2373
lclavicle 1.58282e-014 2.64384e-014
lhumerus -33.0811 5.38479 82.6055
lradius 29.0893
lwrist 6.07819
lhand -27.1056 23.0891
lfingers 7.12502
lthumb -0.522115 53.0682
rfemur -5.95749 8.06663 33.1536
rtibia 29.7581
rfoot -17.3975 -5.92107
rtoes 7.46271
lfemur -27.1091 3.86349 -14.2301
ltibia 54.8334
lfoot -5.84535 3.03634
ltoes -4.57534
36
root 4.59447 18.0387 -23.0618 -2.38995 -4.58826 -6.431
lowerback 12.6484 0.781567 5.8303
upperback 0.918924 2.02272 2.55277
thorax -6.02592 0.867815 -0.947823
lowerneck -17.8783 -3.38924 -1.77459
upperneck 20.2815 -4.25747 0.20231
head 9.3916 -2.09939 -0.200114
rclavicle -1.73937e-015 -1.45113e-014
rhumerus -24.9958 -11.5032 -81.7449
rradius 25.8023
rwrist 2.64734
rhand -16.8189 11.4408
rfingers 7.12502
rthumb 9.41006 -18.3291
lclavicle -1.73937e-015 -1.45113e-014
lhumerus -33.3988 5.59544 82.4713
lradius 28.9692
lwrist 5.85965
lhand -27.2483 19.4057
lfingers 7.12502
lthumb -0.659882 49.3844
rfemur -5.29103 8.14364 33.493
rtibia 29.5576
rfoot -17.723 -6.29792
rtoes 7.6005
lfemur -27.6313 3.51867 -13.8468
ltibia 52.7318
lfoot -5.59278 3.61658
ltoes -2.24559
37
root 4.60001 18.0317 -22.8901 -2.17722 -4.52271 -6.42825
lowerback 12.2448 0.748665 5.81986
upperback 0.840182 1.95207 2.59288
thorax -5.88982 0.836825 -0.879929
lowerneck -17.419 -3.31325 -2.06551
upperneck 20.308 -4.10424 0.30035
head 9.32472 -2.04197 -0.0905805
rclavicle -1.54058e-015 3.57812e-015
rhumerus -24.9366 -10.6661 -81.7899
rradius 26.4531
rwrist 2.07746
rhand -16.8866 8.8986
rfingers 7.12502
rthumb 9.3448 -20.8743
lclavicle -1.54058e-015 3.57812e-015
lhumerus -33.7517 5.83927 82.4182
lradius 28.6965
lwrist 5.74878
lhand -27.2121 19.433
lfingers 7.12502
lthumb -0.624978 49.4118
rfemur -4.77018 7.95209 33.4821
rtibia 29.2885
rfoot -18.2179 -6.41072
rtoes 7.99429
lfemur -28.0729 3.10904 -13.8319
ltibia 50.4637
lfoot -5.3634 4.0906
ltoes -1.43412
38
root 4.60214 18.0225 -22.7204 -2.08286 -4.56088 -6.49111
lowerback 12.1642 0.774311 5.85108
upperback 0.746927 1.99014 2.60478
thorax -5.94123 0.852165 -0.890155
lowerneck -16.8038 -3.26492 -2.05529
upperneck 19.9081 -4.04132 0.264454
head 9.07187 -2.01993 -0.0815091
rclavicle 4.52235e-015 4.96962e-015
rhumerus -25.0023 -9.94357 -81.8542
rradius 27.1522
rwrist 1.5336
rhand -17.2659 11.8717
rfingers 7.12502
rthumb 8.97879 -17.9172
lclavicle 4.52235e-015 4.96962e-015
lhumerus -34.1335 6.03171 82.3298
lradius 28.6027
lwrist 5.53415
lhand -26.7084 23.0676
lfingers 7.12502
lthumb -0.138435 53.0473
rfemur -4.09814 7.8577 33.5641
rtibia 28.9301
rfoot -18.6612 -6.34936
rtoes 9.02475
lfemur -28.2417 2.78825 -13.7556
ltibia 48.0762
lfoot -5.63397 4.75727
ltoes -3.93141
39
root 4.60367 18.0114 -22.552 -1.9562 -4.79657 -6.88806
lowerback 12.2592 0.889074 6.25764
upperback 0.6712 2.21127 2.61565
thorax -6.04849 0.945127 -1.14528
lowerneck -16.5389 -3.2912 -1.82891
upperneck 19.6126 -4.11424 0.150472
head 8.91471 -2.05145 -0.158739
rclavicle 3.44146e-015 -1.17283e-014
rhumerus -24.7331 -9.76746 -81.9592
rradius 27.3782
rwrist 1.26291
rhand -18.2991 18.777
rfingers 7.12502
rthumb 7.9817 -11.0523
lclavicle 3.44146e-015 -1.17283e-014
lhumerus -34.3956 5.97952 82.1602
lradius 28.6222
lwrist 5.40607
lhand -26.5036 25.7521
lfingers 7.12502
lthumb 0.0593612 55.7318
rfemur -3.36537 7.99888 34.0285
rtibia 28.5
rfoot -18.9311 -6.39751
rtoes 8.42962
lfemur -28.3767 2.62765 -13.2388
ltibia 45.602
lfoot -5.71696 5.14676
ltoes -5.51922
40
root 4.60608 18.0043 -22.3857 -1.74321 -4.8058 -7.10577
lowerback 12.3181 0.899408 6.44178
upperback 0.584047 2.26416 2.66099
thorax -6.16643 0.961456 -1.21123
lowerneck -16.8964 -3.29827 -1.87404
upperneck 19.9182 -4.10883 0.155214
head 9.08611 -2.04926 -0.158757
rclavicle -4.5472e-015 -1.15295e-014
rhumerus -24.3717 -9.39416 -82.0245
rradius 27.6138
rwrist 1.06858
rhand -18.6299 22.2806
rfingers 7.12502
rthumb 7.66234 -7.56057
lclavicle -4.5472e-015 -1.15295e-014
lhumerus -34.5605 6.20586 82.0543
lradius 28.3778
lwrist 5.41529
lhand -26.275 25.2868
lfingers 7.12502
lthumb 0.280154 55.2663
rfemur -2.74434 8.08938 34.297
rtibia 28.0417
rfoot -19.1452 -6.55741
rtoes 7.9711
lfemur -28.6991 2.18287 -12.8535
ltibia 43.0455
lfoot -5.53893 5.23528
ltoes -4.64861
41
root 4.60935 17.9965 -22.2169 -1.61662 -4.72688 -7.26814
lowerback 12.2696 0.775659 6.48773
upperback 0.431086 2.12193 2.80848
thorax -6.31645 0.885853 -1.05706
lowerneck -16.4503 -3.17026 -2.12019
upperneck 19.8709 -3.86453 0.105284
head 8.99078 -1.96157 -0.096162
rclavicle -3.3048e-015 3.43897e-014
rhumerus -24.4021 -8.4517 -82.0509
rradius 28.1926
rwrist 0.629395
rhand -18.3673 22.2357
rfingers 7.12502
rthumb 7.9158 -7.59613
lclavicle -3.3048e-015 3.43897e-014
lhumerus -35.1276 7.11924 81.7312
lradius 27.9743
lwrist 5.11333
lhand -26.2525 22.5457
lfingers 7.12502
lthumb 0.301856 52.5253
rfemur -2.07314 7.99953 34.4961
rtibia 27.6344
rfoot -19.3685 -6.73795
rtoes 7.4241
lfemur -28.9478 1.62267 -12.5229
ltibia 40.4901
lfoot -5.42631 5.29402
ltoes -5.91741
42
root 4.61427 17.9711 -22.0455 -1.38561 -4.75477 -7.27532
lowerback 12.0269 1.11022 6.8158
upperback 1.09998 2.51771 2.39915
thorax -5.40918 1.10561 -1.72288
lowerneck -19.3843 -3.49843 -1.43198
upperneck 20.5017 -4.47764 0.18354
head 9.73707 -2.16648 -0.323248
rclavicle 7.35876e-014 1.82882e-014
rhumerus -22.6262 -9.71453 -82.4111
rradius 28.4325
rwrist 0.525729
rhand -18.3754 22.3508
rfingers 7.12502
rthumb 7.90799 -7.48131
lclavicle 7.35876e-014 1.82882e-014
lhumerus -33.1754 6.67277 81.519
lradius 27.1071
lwrist 4.83264
lhand -25.9332 20.0584
lfingers 7.12502
lthumb 0.610295 50.0373
rfemur -1.49679 7.90933 34.4829
rtibia 27.2129
rfoot -19.4863 -6.79126
rtoes 6.31307
lfemur -29.1772 1.13328 -12.3546
ltibia 37.8038
lfoot -5.26969 5.35667
ltoes -2.63178
